<svg width="418" height="515" viewBox="0 0 418 515" fill="none" xmlns="http://www.w3.org/2000/svg">
<g filter="url(#filter0_d)">
<path d="M289.398 281.859H319.035C322.41 281.859 326.102 282 330.109 282.281C334.188 282.562 338.23 283.266 342.238 284.391C346.316 285.445 350.219 287.062 353.945 289.242C357.742 291.422 361.082 294.41 363.965 298.207C366.918 302.004 369.273 306.785 371.031 312.551C372.789 318.246 373.668 325.172 373.668 333.328V337.863C373.668 351.574 371.699 362.754 367.762 371.402C363.824 379.98 358.023 386.168 350.359 389.965L379.258 462H350.359L326.418 394.605H316.188V462H289.398V281.859ZM320.301 374.883C325.082 374.883 329.125 374.355 332.43 373.301C335.734 372.246 338.406 370.488 340.445 368.027C342.484 365.496 343.961 362.191 344.875 358.113C345.789 353.965 346.246 348.867 346.246 342.82V328.582C346.246 323.941 345.824 319.934 344.98 316.559C344.137 313.184 342.695 310.406 340.656 308.227C338.688 306.047 336.051 304.43 332.746 303.375C329.441 302.32 325.293 301.793 320.301 301.793H316.188V374.883H320.301Z" fill="white"/>
</g>
<g filter="url(#filter1_d)">
<path d="M253.227 281.859H284.656L317.984 462H290.352L285.395 429.727H252.488L247.742 462H220.004L253.227 281.859ZM282.23 409.16L269.574 319.406H268.414L255.652 409.16H282.23Z" fill="white"/>
</g>
<g filter="url(#filter2_d)">
<path d="M169.398 281.859H197.77C202.059 281.859 206.488 282 211.059 282.281C215.699 282.492 220.199 283.23 224.559 284.496C228.988 285.762 233.137 287.73 237.004 290.402C240.941 293.004 244.387 296.695 247.34 301.477C250.293 306.188 252.613 312.164 254.301 319.406C256.059 326.578 256.938 335.367 256.938 345.773V398.086C256.938 408.492 256.059 417.316 254.301 424.559C252.613 431.801 250.293 437.777 247.34 442.488C244.387 447.199 240.941 450.891 237.004 453.562C233.137 456.164 228.988 458.098 224.559 459.363C220.199 460.629 215.699 461.402 211.059 461.684C206.488 461.895 202.059 462 197.77 462H169.398V281.859ZM203.676 442.91C208.598 442.91 212.641 442.277 215.805 441.012C219.039 439.746 221.57 437.531 223.398 434.367C225.297 431.133 226.598 426.773 227.301 421.289C228.004 415.734 228.355 408.738 228.355 400.301V344.402C228.355 335.965 228.004 329.004 227.301 323.52C226.598 317.965 225.297 313.605 223.398 310.441C221.57 307.207 219.039 304.957 215.805 303.691C212.641 302.426 208.598 301.793 203.676 301.793H196.715V442.91H203.676Z" fill="white"/>
</g>
<g filter="url(#filter3_d)">
<path d="M144.266 463.582C141.383 463.582 138.254 463.336 134.879 462.844C131.504 462.422 128.164 461.473 124.859 459.996C121.555 458.52 118.355 456.445 115.262 453.773C112.238 451.031 109.531 447.445 107.141 443.016C104.82 438.586 102.957 433.137 101.551 426.668C100.145 420.129 99.4414 412.359 99.4414 403.359V339.551C99.4414 330.48 100.145 322.746 101.551 316.348C103.027 309.879 104.961 304.465 107.352 300.105C109.742 295.676 112.449 292.16 115.473 289.559C118.566 286.957 121.766 284.988 125.07 283.652C128.445 282.246 131.785 281.332 135.09 280.91C138.395 280.488 141.453 280.277 144.266 280.277C146.938 280.277 149.891 280.488 153.125 280.91C156.43 281.262 159.699 282.105 162.934 283.441C166.238 284.707 169.438 286.641 172.531 289.242C175.625 291.773 178.367 295.254 180.758 299.684C183.148 304.043 185.047 309.492 186.453 316.031C187.93 322.5 188.668 330.34 188.668 339.551V403.359C188.668 412.289 187.93 419.988 186.453 426.457C184.977 432.855 183.043 438.305 180.652 442.805C178.262 447.234 175.484 450.82 172.32 453.562C169.227 456.234 166.027 458.344 162.723 459.891C159.488 461.367 156.254 462.352 153.02 462.844C149.785 463.336 146.867 463.582 144.266 463.582ZM144.266 443.016C146.938 443.016 149.258 442.559 151.227 441.645C153.266 440.73 154.918 439.148 156.184 436.898C157.52 434.648 158.504 431.695 159.137 428.039C159.84 424.312 160.191 419.637 160.191 414.012V332.062C160.191 326.297 159.84 321.48 159.137 317.613C158.504 313.746 157.52 310.652 156.184 308.332C154.918 305.941 153.266 304.254 151.227 303.27C149.258 302.285 146.938 301.793 144.266 301.793C141.523 301.793 139.133 302.285 137.094 303.27C135.055 304.254 133.367 305.941 132.031 308.332C130.695 310.652 129.676 313.746 128.973 317.613C128.34 321.48 128.023 326.297 128.023 332.062V414.012C128.023 419.637 128.34 424.312 128.973 428.039C129.676 431.695 130.695 434.648 132.031 436.898C133.367 439.148 135.055 440.73 137.094 441.645C139.133 442.559 141.523 443.016 144.266 443.016Z" fill="white"/>
</g>
<g filter="url(#filter4_d)">
<path d="M35.3984 281.859H57.5469L101.211 402.41H101.844C101.633 399.598 101.352 396.469 101 393.023C100.648 389.578 100.332 385.676 100.051 381.316C99.7695 376.887 99.5234 371.895 99.3125 366.34C99.1016 360.785 98.9961 354.527 98.9961 347.566V281.859H123.465V462H101.105L57.6523 344.613H56.8086C57.0195 347.777 57.3008 351.223 57.6523 354.949C58.0039 358.605 58.3203 362.93 58.6016 367.922C58.8828 372.914 59.1289 378.75 59.3398 385.43C59.5508 392.039 59.6562 399.914 59.6562 409.055V462H35.3984V281.859Z" fill="white"/>
</g>
<g filter="url(#filter5_d)">
<path d="M269.25 242.344C269.25 237.188 269.531 232.453 270.094 228.141C270.75 223.734 271.688 219 272.906 213.938H301.172V225.609C301.172 232.078 301.547 237.797 302.297 242.766C303.141 247.734 304.453 251.953 306.234 255.422C308.109 258.797 310.547 261.375 313.547 263.156C316.641 264.844 320.391 265.688 324.797 265.688C331.734 265.688 337.031 263.812 340.688 260.062C344.344 256.219 346.172 250.641 346.172 243.328C346.172 239.578 345.891 236.156 345.328 233.062C344.859 229.875 343.969 226.734 342.656 223.641C341.438 220.547 339.75 217.312 337.594 213.938C335.438 210.469 332.672 206.625 329.297 202.406L291.328 157.266C284.578 148.641 279.375 139.969 275.719 131.25C272.062 122.437 270.234 113.063 270.234 103.125C270.234 95.1562 271.453 87.8437 273.891 81.1875C276.422 74.5313 280.031 68.8125 284.719 64.0312C289.406 59.1562 295.172 55.4063 302.016 52.7812C308.953 50.0625 316.781 48.7031 325.5 48.7031C336.094 48.7031 344.906 50.2031 351.938 53.2031C359.062 56.2031 364.734 60.1406 368.953 65.0156C373.172 69.8906 376.125 75.375 377.812 81.4688C379.594 87.4688 380.484 93.5156 380.484 99.6094C380.484 104.766 380.062 109.547 379.219 113.953C378.469 118.266 377.578 123.047 376.547 128.297H348.422V116.906C348.422 104.156 346.594 94.4062 342.938 87.6562C339.281 80.8125 333.328 77.3906 325.078 77.3906C318.234 77.3906 313.125 79.3125 309.75 83.1562C306.375 86.9063 304.688 91.9688 304.688 98.3438C304.688 101.719 304.922 104.766 305.391 107.484C305.953 110.203 306.703 112.734 307.641 115.078C308.672 117.328 309.891 119.531 311.297 121.688C312.703 123.844 314.297 126.094 316.078 128.438L358.406 179.625C366.094 189.656 372 199.312 376.125 208.594C380.25 217.781 382.312 227.531 382.312 237.844C382.312 246.375 380.953 254.062 378.234 260.906C375.609 267.75 371.812 273.562 366.844 278.344C361.875 283.125 355.875 286.828 348.844 289.453C341.812 291.984 333.891 293.25 325.078 293.25C314.203 293.25 305.156 291.797 297.938 288.891C290.812 285.984 285.094 282.141 280.781 277.359C276.562 272.578 273.562 267.141 271.781 261.047C270.094 254.953 269.25 248.719 269.25 242.344Z" fill="white"/>
</g>
<g filter="url(#filter6_d)">
<path d="M229.969 50.8125H271.875L316.312 291H279.469L272.859 247.969H228.984L222.656 291H185.672L229.969 50.8125ZM268.641 220.547L251.766 100.875H250.219L233.203 220.547H268.641Z" fill="white"/>
</g>
<g filter="url(#filter7_d)">
<path d="M121.531 50.8125H161.047C165.547 50.8125 170.469 51 175.812 51.375C181.25 51.75 186.641 52.6875 191.984 54.1875C197.422 55.5938 202.625 57.75 207.594 60.6562C212.656 63.5625 217.109 67.5469 220.953 72.6094C224.891 77.6719 228.031 84.0469 230.375 91.7344C232.719 99.3281 233.891 108.563 233.891 119.438V125.484C233.891 143.766 231.266 158.672 226.016 170.203C220.766 181.641 213.031 189.891 202.812 194.953L241.344 291H202.812L170.891 201.141H157.25V291H121.531V50.8125ZM162.734 174.844C169.109 174.844 174.5 174.141 178.906 172.734C183.312 171.328 186.875 168.984 189.594 165.703C192.312 162.328 194.281 157.922 195.5 152.484C196.719 146.953 197.328 140.156 197.328 132.094V113.109C197.328 106.922 196.766 101.578 195.641 97.0781C194.516 92.5781 192.594 88.875 189.875 85.9688C187.25 83.0625 183.734 80.9062 179.328 79.5C174.922 78.0938 169.391 77.3906 162.734 77.3906H157.25V174.844H162.734Z" fill="white"/>
</g>
<g filter="url(#filter8_d)">
<path d="M35.5312 50.8125H71.9531V155.719H73.0781L114.703 50.8125H150.984L104.578 163.453L156.188 291H117.234L73.0781 176.672H71.9531V291H35.5312V50.8125Z" fill="white"/>
</g>
<defs>
<filter id="filter0_d" x="254.398" y="250.859" width="159.859" height="250.141" filterUnits="userSpaceOnUse" color-interpolation-filters="sRGB">
<feFlood flood-opacity="0" result="BackgroundImageFix"/>
<feColorMatrix in="SourceAlpha" type="matrix" values="0 0 0 0 0 0 0 0 0 0 0 0 0 0 0 0 0 0 127 0"/>
<feOffset dy="4"/>
<feGaussianBlur stdDeviation="17.5"/>
<feColorMatrix type="matrix" values="0 0 0 0 0 0 0 0 0 0 0 0 0 0 0 0 0 0 1 0"/>
<feBlend mode="normal" in2="BackgroundImageFix" result="effect1_dropShadow"/>
<feBlend mode="normal" in="SourceGraphic" in2="effect1_dropShadow" result="shape"/>
</filter>
<filter id="filter1_d" x="185.004" y="250.859" width="167.98" height="250.141" filterUnits="userSpaceOnUse" color-interpolation-filters="sRGB">
<feFlood flood-opacity="0" result="BackgroundImageFix"/>
<feColorMatrix in="SourceAlpha" type="matrix" values="0 0 0 0 0 0 0 0 0 0 0 0 0 0 0 0 0 0 127 0"/>
<feOffset dy="4"/>
<feGaussianBlur stdDeviation="17.5"/>
<feColorMatrix type="matrix" values="0 0 0 0 0 0 0 0 0 0 0 0 0 0 0 0 0 0 1 0"/>
<feBlend mode="normal" in2="BackgroundImageFix" result="effect1_dropShadow"/>
<feBlend mode="normal" in="SourceGraphic" in2="effect1_dropShadow" result="shape"/>
</filter>
<filter id="filter2_d" x="134.398" y="250.859" width="157.539" height="250.141" filterUnits="userSpaceOnUse" color-interpolation-filters="sRGB">
<feFlood flood-opacity="0" result="BackgroundImageFix"/>
<feColorMatrix in="SourceAlpha" type="matrix" values="0 0 0 0 0 0 0 0 0 0 0 0 0 0 0 0 0 0 127 0"/>
<feOffset dy="4"/>
<feGaussianBlur stdDeviation="17.5"/>
<feColorMatrix type="matrix" values="0 0 0 0 0 0 0 0 0 0 0 0 0 0 0 0 0 0 1 0"/>
<feBlend mode="normal" in2="BackgroundImageFix" result="effect1_dropShadow"/>
<feBlend mode="normal" in="SourceGraphic" in2="effect1_dropShadow" result="shape"/>
</filter>
<filter id="filter3_d" x="64.4414" y="249.277" width="159.227" height="253.305" filterUnits="userSpaceOnUse" color-interpolation-filters="sRGB">
<feFlood flood-opacity="0" result="BackgroundImageFix"/>
<feColorMatrix in="SourceAlpha" type="matrix" values="0 0 0 0 0 0 0 0 0 0 0 0 0 0 0 0 0 0 127 0"/>
<feOffset dy="4"/>
<feGaussianBlur stdDeviation="17.5"/>
<feColorMatrix type="matrix" values="0 0 0 0 0 0 0 0 0 0 0 0 0 0 0 0 0 0 1 0"/>
<feBlend mode="normal" in2="BackgroundImageFix" result="effect1_dropShadow"/>
<feBlend mode="normal" in="SourceGraphic" in2="effect1_dropShadow" result="shape"/>
</filter>
<filter id="filter4_d" x="0.398438" y="250.859" width="158.066" height="250.141" filterUnits="userSpaceOnUse" color-interpolation-filters="sRGB">
<feFlood flood-opacity="0" result="BackgroundImageFix"/>
<feColorMatrix in="SourceAlpha" type="matrix" values="0 0 0 0 0 0 0 0 0 0 0 0 0 0 0 0 0 0 127 0"/>
<feOffset dy="4"/>
<feGaussianBlur stdDeviation="17.5"/>
<feColorMatrix type="matrix" values="0 0 0 0 0 0 0 0 0 0 0 0 0 0 0 0 0 0 1 0"/>
<feBlend mode="normal" in2="BackgroundImageFix" result="effect1_dropShadow"/>
<feBlend mode="normal" in="SourceGraphic" in2="effect1_dropShadow" result="shape"/>
</filter>
<filter id="filter5_d" x="234.25" y="17.7031" width="183.062" height="314.547" filterUnits="userSpaceOnUse" color-interpolation-filters="sRGB">
<feFlood flood-opacity="0" result="BackgroundImageFix"/>
<feColorMatrix in="SourceAlpha" type="matrix" values="0 0 0 0 0 0 0 0 0 0 0 0 0 0 0 0 0 0 127 0"/>
<feOffset dy="4"/>
<feGaussianBlur stdDeviation="17.5"/>
<feColorMatrix type="matrix" values="0 0 0 0 0 0 0 0 0 0 0 0 0 0 0 0 0 0 1 0"/>
<feBlend mode="normal" in2="BackgroundImageFix" result="effect1_dropShadow"/>
<feBlend mode="normal" in="SourceGraphic" in2="effect1_dropShadow" result="shape"/>
</filter>
<filter id="filter6_d" x="150.672" y="19.8125" width="200.641" height="310.188" filterUnits="userSpaceOnUse" color-interpolation-filters="sRGB">
<feFlood flood-opacity="0" result="BackgroundImageFix"/>
<feColorMatrix in="SourceAlpha" type="matrix" values="0 0 0 0 0 0 0 0 0 0 0 0 0 0 0 0 0 0 127 0"/>
<feOffset dy="4"/>
<feGaussianBlur stdDeviation="17.5"/>
<feColorMatrix type="matrix" values="0 0 0 0 0 0 0 0 0 0 0 0 0 0 0 0 0 0 1 0"/>
<feBlend mode="normal" in2="BackgroundImageFix" result="effect1_dropShadow"/>
<feBlend mode="normal" in="SourceGraphic" in2="effect1_dropShadow" result="shape"/>
</filter>
<filter id="filter7_d" x="86.5312" y="19.8125" width="189.812" height="310.188" filterUnits="userSpaceOnUse" color-interpolation-filters="sRGB">
<feFlood flood-opacity="0" result="BackgroundImageFix"/>
<feColorMatrix in="SourceAlpha" type="matrix" values="0 0 0 0 0 0 0 0 0 0 0 0 0 0 0 0 0 0 127 0"/>
<feOffset dy="4"/>
<feGaussianBlur stdDeviation="17.5"/>
<feColorMatrix type="matrix" values="0 0 0 0 0 0 0 0 0 0 0 0 0 0 0 0 0 0 1 0"/>
<feBlend mode="normal" in2="BackgroundImageFix" result="effect1_dropShadow"/>
<feBlend mode="normal" in="SourceGraphic" in2="effect1_dropShadow" result="shape"/>
</filter>
<filter id="filter8_d" x="0.53125" y="19.8125" width="190.656" height="310.188" filterUnits="userSpaceOnUse" color-interpolation-filters="sRGB">
<feFlood flood-opacity="0" result="BackgroundImageFix"/>
<feColorMatrix in="SourceAlpha" type="matrix" values="0 0 0 0 0 0 0 0 0 0 0 0 0 0 0 0 0 0 127 0"/>
<feOffset dy="4"/>
<feGaussianBlur stdDeviation="17.5"/>
<feColorMatrix type="matrix" values="0 0 0 0 0 0 0 0 0 0 0 0 0 0 0 0 0 0 1 0"/>
<feBlend mode="normal" in2="BackgroundImageFix" result="effect1_dropShadow"/>
<feBlend mode="normal" in="SourceGraphic" in2="effect1_dropShadow" result="shape"/>
</filter>
</defs>
</svg>
