<svg width="105" height="126" viewBox="0 0 105 126" fill="none" xmlns="http://www.w3.org/2000/svg">
<g filter="url(#filter0_d)">
<path d="M56.5645 72.3008H61.6914L71.7988 100.206H71.9453C71.8965 99.555 71.8314 98.8307 71.75 98.0332C71.6686 97.2357 71.5954 96.3324 71.5303 95.3232C71.4652 94.2979 71.4082 93.1423 71.3594 91.8564C71.3105 90.5706 71.2861 89.1221 71.2861 87.5107V72.3008H76.9502V114H71.7744L61.7158 86.8271H61.5205C61.5693 87.5596 61.6344 88.3571 61.7158 89.2197C61.7972 90.0661 61.8704 91.0671 61.9355 92.2227C62.0007 93.3783 62.0576 94.7292 62.1064 96.2754C62.1553 97.8053 62.1797 99.6283 62.1797 101.744V114H56.5645V72.3008Z" fill="white"/>
</g>
<g filter="url(#filter1_d)">
<path d="M50.793 114.366C50.1257 114.366 49.4014 114.309 48.6201 114.195C47.8389 114.098 47.0658 113.878 46.3008 113.536C45.5358 113.194 44.7952 112.714 44.0791 112.096C43.3792 111.461 42.7526 110.631 42.1992 109.605C41.6621 108.58 41.2308 107.319 40.9053 105.821C40.5798 104.308 40.417 102.509 40.417 100.426V85.6553C40.417 83.5557 40.5798 81.7653 40.9053 80.2842C41.2471 78.7868 41.6947 77.5335 42.248 76.5244C42.8014 75.499 43.4281 74.6852 44.1279 74.083C44.8441 73.4808 45.5846 73.0251 46.3496 72.7158C47.1309 72.3903 47.904 72.1787 48.6689 72.0811C49.4339 71.9834 50.1419 71.9346 50.793 71.9346C51.4115 71.9346 52.0951 71.9834 52.8438 72.0811C53.6087 72.1624 54.3656 72.3577 55.1143 72.667C55.8792 72.96 56.6198 73.4076 57.3359 74.0098C58.0521 74.5957 58.6868 75.4014 59.2402 76.4268C59.7936 77.4359 60.2331 78.6973 60.5586 80.2109C60.9004 81.7083 61.0713 83.5231 61.0713 85.6553V100.426C61.0713 102.493 60.9004 104.275 60.5586 105.772C60.2168 107.254 59.7692 108.515 59.2158 109.557C58.6624 110.582 58.0195 111.412 57.2871 112.047C56.571 112.665 55.8304 113.154 55.0654 113.512C54.3167 113.854 53.568 114.081 52.8193 114.195C52.0706 114.309 51.3952 114.366 50.793 114.366ZM50.793 109.605C51.4115 109.605 51.9486 109.5 52.4043 109.288C52.8763 109.076 53.2588 108.71 53.5518 108.189C53.861 107.669 54.0889 106.985 54.2354 106.139C54.3981 105.276 54.4795 104.194 54.4795 102.892V83.9219C54.4795 82.5872 54.3981 81.4723 54.2354 80.5771C54.0889 79.682 53.861 78.9658 53.5518 78.4287C53.2588 77.8753 52.8763 77.4847 52.4043 77.2568C51.9486 77.029 51.4115 76.915 50.793 76.915C50.1582 76.915 49.6048 77.029 49.1328 77.2568C48.6608 77.4847 48.2702 77.8753 47.9609 78.4287C47.6517 78.9658 47.4157 79.682 47.2529 80.5771C47.1064 81.4723 47.0332 82.5872 47.0332 83.9219V102.892C47.0332 104.194 47.1064 105.276 47.2529 106.139C47.4157 106.985 47.6517 107.669 47.9609 108.189C48.2702 108.71 48.6608 109.076 49.1328 109.288C49.6048 109.5 50.1582 109.605 50.793 109.605Z" fill="white"/>
</g>
<g filter="url(#filter2_d)">
<path d="M24.5645 72.3008H31.1318C32.1247 72.3008 33.1501 72.3333 34.208 72.3984C35.2822 72.4473 36.3239 72.6182 37.333 72.9111C38.3584 73.2041 39.3187 73.6598 40.2139 74.2783C41.1253 74.8805 41.9229 75.735 42.6064 76.8418C43.29 77.9323 43.8271 79.3158 44.2178 80.9922C44.6247 82.6523 44.8281 84.6868 44.8281 87.0957V99.2051C44.8281 101.614 44.6247 103.657 44.2178 105.333C43.8271 107.009 43.29 108.393 42.6064 109.483C41.9229 110.574 41.1253 111.428 40.2139 112.047C39.3187 112.649 38.3584 113.097 37.333 113.39C36.3239 113.683 35.2822 113.862 34.208 113.927C33.1501 113.976 32.1247 114 31.1318 114H24.5645V72.3008ZM32.499 109.581C33.6383 109.581 34.5742 109.435 35.3066 109.142C36.0553 108.849 36.6413 108.336 37.0645 107.604C37.5039 106.855 37.805 105.846 37.9678 104.576C38.1305 103.29 38.2119 101.671 38.2119 99.7178V86.7783C38.2119 84.8252 38.1305 83.2139 37.9678 81.9443C37.805 80.6585 37.5039 79.6494 37.0645 78.917C36.6413 78.1683 36.0553 77.6475 35.3066 77.3545C34.5742 77.0615 33.6383 76.915 32.499 76.915H30.8877V109.581H32.499Z" fill="white"/>
</g>
<g filter="url(#filter3_d)">
<path d="M49.4951 49.8105H53.084L60.1592 69.3442H60.2617C60.2275 68.8885 60.182 68.3815 60.125 67.8232C60.068 67.265 60.0168 66.6326 59.9712 65.9263C59.9256 65.2085 59.8857 64.3996 59.8516 63.4995C59.8174 62.5994 59.8003 61.5854 59.8003 60.4575V49.8105H63.7651V79H60.1421L53.1011 59.979H52.9644C52.9985 60.4917 53.0441 61.05 53.1011 61.6538C53.158 62.2463 53.2093 62.9469 53.2549 63.7559C53.3005 64.5648 53.3403 65.5104 53.3745 66.5928C53.4087 67.6637 53.4258 68.9398 53.4258 70.4209V79H49.4951V49.8105Z" fill="white"/>
</g>
<g filter="url(#filter4_d)">
<path d="M44.9551 79.2563C44.488 79.2563 43.981 79.2165 43.4341 79.1367C42.8872 79.0684 42.346 78.9146 41.8105 78.6753C41.2751 78.436 40.7567 78.0999 40.2554 77.667C39.7655 77.2227 39.3268 76.6416 38.9395 75.9238C38.5635 75.2061 38.2616 74.3231 38.0337 73.2749C37.8058 72.2153 37.6919 70.9564 37.6919 69.498V59.1587C37.6919 57.689 37.8058 56.4357 38.0337 55.3989C38.2729 54.3507 38.5863 53.4735 38.9736 52.7671C39.361 52.0493 39.7996 51.4797 40.2896 51.0581C40.7909 50.6366 41.3092 50.3175 41.8447 50.1011C42.3916 49.8732 42.9328 49.7251 43.4683 49.6567C44.0037 49.5884 44.4993 49.5542 44.9551 49.5542C45.388 49.5542 45.8665 49.5884 46.3906 49.6567C46.9261 49.7137 47.4559 49.8504 47.98 50.0669C48.5155 50.272 49.0339 50.5853 49.5352 51.0068C50.0365 51.417 50.4808 51.981 50.8682 52.6987C51.2555 53.4051 51.5632 54.2881 51.791 55.3477C52.0303 56.3958 52.1499 57.6662 52.1499 59.1587V69.498C52.1499 70.945 52.0303 72.1925 51.791 73.2407C51.5518 74.2775 51.2384 75.1605 50.8511 75.8896C50.4637 76.6074 50.0137 77.1885 49.501 77.6328C48.9997 78.0658 48.4813 78.4076 47.9458 78.6582C47.4217 78.8975 46.8976 79.057 46.3735 79.1367C45.8494 79.2165 45.3766 79.2563 44.9551 79.2563ZM44.9551 75.9238C45.388 75.9238 45.764 75.8498 46.083 75.7017C46.4134 75.5535 46.6812 75.2972 46.8862 74.9326C47.1027 74.568 47.2622 74.0895 47.3647 73.4971C47.4787 72.8932 47.5356 72.1356 47.5356 71.2241V57.9453C47.5356 57.0111 47.4787 56.2306 47.3647 55.604C47.2622 54.9774 47.1027 54.4761 46.8862 54.1001C46.6812 53.7127 46.4134 53.4393 46.083 53.2798C45.764 53.1203 45.388 53.0405 44.9551 53.0405C44.5107 53.0405 44.1234 53.1203 43.793 53.2798C43.4626 53.4393 43.1891 53.7127 42.9727 54.1001C42.7562 54.4761 42.591 54.9774 42.4771 55.604C42.3745 56.2306 42.3232 57.0111 42.3232 57.9453V71.2241C42.3232 72.1356 42.3745 72.8932 42.4771 73.4971C42.591 74.0895 42.7562 74.568 42.9727 74.9326C43.1891 75.2972 43.4626 75.5535 43.793 75.7017C44.1234 75.8498 44.5107 75.9238 44.9551 75.9238Z" fill="white"/>
</g>
<g filter="url(#filter5_d)">
<path d="M77.501 10.9648H84.4883L89.4453 46.6396H89.7354L94.7188 10.9648H101.68L93.4795 56H85.6748L77.501 10.9648Z" fill="white"/>
</g>
<g filter="url(#filter6_d)">
<path d="M75.8164 56.3955C75.0957 56.3955 74.3135 56.334 73.4697 56.2109C72.626 56.1055 71.791 55.8682 70.9648 55.499C70.1387 55.1299 69.3389 54.6113 68.5654 53.9434C67.8096 53.2578 67.1328 52.3613 66.5352 51.2539C65.9551 50.1465 65.4893 48.7842 65.1377 47.167C64.7861 45.5322 64.6104 43.5898 64.6104 41.3398V25.3877C64.6104 23.1201 64.7861 21.1865 65.1377 19.5869C65.5068 17.9697 65.9902 16.6162 66.5879 15.5264C67.1855 14.4189 67.8623 13.54 68.6182 12.8896C69.3916 12.2393 70.1914 11.7471 71.0176 11.4131C71.8613 11.0615 72.6963 10.833 73.5225 10.7275C74.3486 10.6221 75.1133 10.5693 75.8164 10.5693C76.4844 10.5693 77.2227 10.6221 78.0312 10.7275C78.8574 10.8154 79.6748 11.0264 80.4834 11.3604C81.3096 11.6768 82.1094 12.1602 82.8828 12.8105C83.6562 13.4434 84.3418 14.3135 84.9395 15.4209C85.5371 16.5107 86.0117 17.873 86.3633 19.5078C86.7324 21.125 86.917 23.085 86.917 25.3877V41.3398C86.917 43.5723 86.7324 45.4971 86.3633 47.1143C85.9941 48.7139 85.5107 50.0762 84.9131 51.2012C84.3154 52.3086 83.6211 53.2051 82.8301 53.8906C82.0566 54.5586 81.2568 55.0859 80.4307 55.4727C79.6221 55.8418 78.8135 56.0879 78.0049 56.2109C77.1963 56.334 76.4668 56.3955 75.8164 56.3955ZM75.8164 51.2539C76.4844 51.2539 77.0645 51.1396 77.5566 50.9111C78.0664 50.6826 78.4795 50.2871 78.7959 49.7246C79.1299 49.1621 79.376 48.4238 79.5342 47.5098C79.71 46.5781 79.7979 45.4092 79.7979 44.0029V23.5156C79.7979 22.0742 79.71 20.8701 79.5342 19.9033C79.376 18.9365 79.1299 18.1631 78.7959 17.583C78.4795 16.9854 78.0664 16.5635 77.5566 16.3174C77.0645 16.0713 76.4844 15.9482 75.8164 15.9482C75.1309 15.9482 74.5332 16.0713 74.0234 16.3174C73.5137 16.5635 73.0918 16.9854 72.7578 17.583C72.4238 18.1631 72.1689 18.9365 71.9932 19.9033C71.835 20.8701 71.7559 22.0742 71.7559 23.5156V44.0029C71.7559 45.4092 71.835 46.5781 71.9932 47.5098C72.1689 48.4238 72.4238 49.1621 72.7578 49.7246C73.0918 50.2871 73.5137 50.6826 74.0234 50.9111C74.5332 51.1396 75.1309 51.2539 75.8164 51.2539Z" fill="white"/>
</g>
<g filter="url(#filter7_d)">
<path d="M61.0156 16.3438H53.7646V10.9648H75.0693V16.3438H67.8447V56H61.0156V16.3438Z" fill="white"/>
</g>
<g filter="url(#filter8_d)">
<path d="M41.1094 46.877C41.1094 45.9102 41.1621 45.0225 41.2676 44.2139C41.3906 43.3877 41.5664 42.5 41.7949 41.5508H47.0947V43.7393C47.0947 44.9521 47.165 46.0244 47.3057 46.9561C47.4639 47.8877 47.71 48.6787 48.0439 49.3291C48.3955 49.9619 48.8525 50.4453 49.415 50.7793C49.9951 51.0957 50.6982 51.2539 51.5244 51.2539C52.8252 51.2539 53.8184 50.9023 54.5039 50.1992C55.1895 49.4785 55.5322 48.4326 55.5322 47.0615C55.5322 46.3584 55.4795 45.7168 55.374 45.1367C55.2861 44.5391 55.1191 43.9502 54.873 43.3701C54.6445 42.79 54.3281 42.1836 53.9238 41.5508C53.5195 40.9004 53.001 40.1797 52.3682 39.3887L45.249 30.9248C43.9834 29.3076 43.0078 27.6816 42.3223 26.0469C41.6367 24.3945 41.2939 22.6367 41.2939 20.7734C41.2939 19.2793 41.5225 17.9082 41.9795 16.6602C42.4541 15.4121 43.1309 14.3398 44.0098 13.4434C44.8887 12.5293 45.9697 11.8262 47.2529 11.334C48.5537 10.8242 50.0215 10.5693 51.6562 10.5693C53.6426 10.5693 55.2949 10.8506 56.6133 11.4131C57.9492 11.9756 59.0127 12.7139 59.8037 13.6279C60.5947 14.542 61.1484 15.5703 61.4648 16.7129C61.7988 17.8379 61.9658 18.9717 61.9658 20.1143C61.9658 21.0811 61.8867 21.9775 61.7285 22.8037C61.5879 23.6123 61.4209 24.5088 61.2275 25.4932H55.9541V23.3574C55.9541 20.9668 55.6113 19.1387 54.9258 17.873C54.2402 16.5898 53.124 15.9482 51.5771 15.9482C50.2939 15.9482 49.3359 16.3086 48.7031 17.0293C48.0703 17.7324 47.7539 18.6816 47.7539 19.877C47.7539 20.5098 47.7979 21.0811 47.8857 21.5908C47.9912 22.1006 48.1318 22.5752 48.3076 23.0146C48.501 23.4365 48.7295 23.8496 48.9932 24.2539C49.2568 24.6582 49.5557 25.0801 49.8896 25.5195L57.8262 35.1172C59.2676 36.998 60.375 38.8086 61.1484 40.5488C61.9219 42.2715 62.3086 44.0996 62.3086 46.0332C62.3086 47.6328 62.0537 49.0742 61.5439 50.3574C61.0518 51.6406 60.3398 52.7305 59.4082 53.627C58.4766 54.5234 57.3516 55.2178 56.0332 55.71C54.7148 56.1846 53.2295 56.4219 51.5771 56.4219C49.5381 56.4219 47.8418 56.1494 46.4883 55.6045C45.1523 55.0596 44.0801 54.3389 43.2715 53.4424C42.4805 52.5459 41.918 51.5264 41.584 50.3838C41.2676 49.2412 41.1094 48.0723 41.1094 46.877Z" fill="white"/>
</g>
<g filter="url(#filter9_d)">
<path d="M36.8164 56.3955C36.0957 56.3955 35.3135 56.334 34.4697 56.2109C33.626 56.1055 32.791 55.8682 31.9648 55.499C31.1387 55.1299 30.3389 54.6113 29.5654 53.9434C28.8096 53.2578 28.1328 52.3613 27.5352 51.2539C26.9551 50.1465 26.4893 48.7842 26.1377 47.167C25.7861 45.5322 25.6104 43.5898 25.6104 41.3398V25.3877C25.6104 23.1201 25.7861 21.1865 26.1377 19.5869C26.5068 17.9697 26.9902 16.6162 27.5879 15.5264C28.1855 14.4189 28.8623 13.54 29.6182 12.8896C30.3916 12.2393 31.1914 11.7471 32.0176 11.4131C32.8613 11.0615 33.6963 10.833 34.5225 10.7275C35.3486 10.6221 36.1133 10.5693 36.8164 10.5693C37.4844 10.5693 38.2227 10.6221 39.0312 10.7275C39.8574 10.8154 40.6748 11.0264 41.4834 11.3604C42.3096 11.6768 43.1094 12.1602 43.8828 12.8105C44.6562 13.4434 45.3418 14.3135 45.9395 15.4209C46.5371 16.5107 47.0117 17.873 47.3633 19.5078C47.7324 21.125 47.917 23.085 47.917 25.3877V41.3398C47.917 43.5723 47.7324 45.4971 47.3633 47.1143C46.9941 48.7139 46.5107 50.0762 45.9131 51.2012C45.3154 52.3086 44.6211 53.2051 43.8301 53.8906C43.0566 54.5586 42.2568 55.0859 41.4307 55.4727C40.6221 55.8418 39.8135 56.0879 39.0049 56.2109C38.1963 56.334 37.4668 56.3955 36.8164 56.3955ZM36.8164 51.2539C37.4844 51.2539 38.0645 51.1396 38.5566 50.9111C39.0664 50.6826 39.4795 50.2871 39.7959 49.7246C40.1299 49.1621 40.376 48.4238 40.5342 47.5098C40.71 46.5781 40.7979 45.4092 40.7979 44.0029V23.5156C40.7979 22.0742 40.71 20.8701 40.5342 19.9033C40.376 18.9365 40.1299 18.1631 39.7959 17.583C39.4795 16.9854 39.0664 16.5635 38.5566 16.3174C38.0645 16.0713 37.4844 15.9482 36.8164 15.9482C36.1309 15.9482 35.5332 16.0713 35.0234 16.3174C34.5137 16.5635 34.0918 16.9854 33.7578 17.583C33.4238 18.1631 33.1689 18.9365 32.9932 19.9033C32.835 20.8701 32.7559 22.0742 32.7559 23.5156V44.0029C32.7559 45.4092 32.835 46.5781 32.9932 47.5098C33.1689 48.4238 33.4238 49.1621 33.7578 49.7246C34.0918 50.2871 34.5137 50.6826 35.0234 50.9111C35.5332 51.1396 36.1309 51.2539 36.8164 51.2539Z" fill="white"/>
</g>
<g filter="url(#filter10_d)">
<path d="M10.8496 10.9648H18.2588C19.1025 10.9648 20.0254 11 21.0273 11.0703C22.0469 11.1406 23.0576 11.3164 24.0596 11.5977C25.0791 11.8613 26.0547 12.2656 26.9863 12.8105C27.9355 13.3555 28.7705 14.1025 29.4912 15.0518C30.2295 16.001 30.8184 17.1963 31.2578 18.6377C31.6973 20.0615 31.917 21.793 31.917 23.832V24.9658C31.917 28.3936 31.4248 31.1885 30.4404 33.3506C29.4561 35.4951 28.0059 37.042 26.0898 37.9912L33.3145 56H26.0898L20.1045 39.1514H17.5469V56H10.8496V10.9648ZM18.5752 34.2207C19.7705 34.2207 20.7812 34.0889 21.6074 33.8252C22.4336 33.5615 23.1016 33.1221 23.6113 32.5068C24.1211 31.874 24.4902 31.0479 24.7188 30.0283C24.9473 28.9912 25.0615 27.7168 25.0615 26.2051V22.6455C25.0615 21.4854 24.9561 20.4834 24.7451 19.6396C24.5342 18.7959 24.1738 18.1016 23.6641 17.5566C23.1719 17.0117 22.5127 16.6074 21.6865 16.3438C20.8604 16.0801 19.8232 15.9482 18.5752 15.9482H17.5469V34.2207H18.5752Z" fill="white"/>
</g>
<defs>
<filter id="filter0_d" x="46.5645" y="62.3008" width="40.3857" height="61.6992" filterUnits="userSpaceOnUse" color-interpolation-filters="sRGB">
<feFlood flood-opacity="0" result="BackgroundImageFix"/>
<feColorMatrix in="SourceAlpha" type="matrix" values="0 0 0 0 0 0 0 0 0 0 0 0 0 0 0 0 0 0 127 0"/>
<feOffset/>
<feGaussianBlur stdDeviation="5"/>
<feColorMatrix type="matrix" values="0 0 0 0 0 0 0 0 0 0 0 0 0 0 0 0 0 0 0.6 0"/>
<feBlend mode="normal" in2="BackgroundImageFix" result="effect1_dropShadow"/>
<feBlend mode="normal" in="SourceGraphic" in2="effect1_dropShadow" result="shape"/>
</filter>
<filter id="filter1_d" x="30.417" y="61.9346" width="40.6543" height="62.4316" filterUnits="userSpaceOnUse" color-interpolation-filters="sRGB">
<feFlood flood-opacity="0" result="BackgroundImageFix"/>
<feColorMatrix in="SourceAlpha" type="matrix" values="0 0 0 0 0 0 0 0 0 0 0 0 0 0 0 0 0 0 127 0"/>
<feOffset/>
<feGaussianBlur stdDeviation="5"/>
<feColorMatrix type="matrix" values="0 0 0 0 0 0 0 0 0 0 0 0 0 0 0 0 0 0 0.6 0"/>
<feBlend mode="normal" in2="BackgroundImageFix" result="effect1_dropShadow"/>
<feBlend mode="normal" in="SourceGraphic" in2="effect1_dropShadow" result="shape"/>
</filter>
<filter id="filter2_d" x="14.5645" y="62.3008" width="40.2637" height="61.6992" filterUnits="userSpaceOnUse" color-interpolation-filters="sRGB">
<feFlood flood-opacity="0" result="BackgroundImageFix"/>
<feColorMatrix in="SourceAlpha" type="matrix" values="0 0 0 0 0 0 0 0 0 0 0 0 0 0 0 0 0 0 127 0"/>
<feOffset/>
<feGaussianBlur stdDeviation="5"/>
<feColorMatrix type="matrix" values="0 0 0 0 0 0 0 0 0 0 0 0 0 0 0 0 0 0 0.6 0"/>
<feBlend mode="normal" in2="BackgroundImageFix" result="effect1_dropShadow"/>
<feBlend mode="normal" in="SourceGraphic" in2="effect1_dropShadow" result="shape"/>
</filter>
<filter id="filter3_d" x="39.4951" y="39.8105" width="34.27" height="49.1895" filterUnits="userSpaceOnUse" color-interpolation-filters="sRGB">
<feFlood flood-opacity="0" result="BackgroundImageFix"/>
<feColorMatrix in="SourceAlpha" type="matrix" values="0 0 0 0 0 0 0 0 0 0 0 0 0 0 0 0 0 0 127 0"/>
<feOffset/>
<feGaussianBlur stdDeviation="5"/>
<feColorMatrix type="matrix" values="0 0 0 0 0 0 0 0 0 0 0 0 0 0 0 0 0 0 0.6 0"/>
<feBlend mode="normal" in2="BackgroundImageFix" result="effect1_dropShadow"/>
<feBlend mode="normal" in="SourceGraphic" in2="effect1_dropShadow" result="shape"/>
</filter>
<filter id="filter4_d" x="27.6919" y="39.5542" width="34.458" height="49.7021" filterUnits="userSpaceOnUse" color-interpolation-filters="sRGB">
<feFlood flood-opacity="0" result="BackgroundImageFix"/>
<feColorMatrix in="SourceAlpha" type="matrix" values="0 0 0 0 0 0 0 0 0 0 0 0 0 0 0 0 0 0 127 0"/>
<feOffset/>
<feGaussianBlur stdDeviation="5"/>
<feColorMatrix type="matrix" values="0 0 0 0 0 0 0 0 0 0 0 0 0 0 0 0 0 0 0.6 0"/>
<feBlend mode="normal" in2="BackgroundImageFix" result="effect1_dropShadow"/>
<feBlend mode="normal" in="SourceGraphic" in2="effect1_dropShadow" result="shape"/>
</filter>
<filter id="filter5_d" x="67.501" y="0.964844" width="44.1787" height="65.0352" filterUnits="userSpaceOnUse" color-interpolation-filters="sRGB">
<feFlood flood-opacity="0" result="BackgroundImageFix"/>
<feColorMatrix in="SourceAlpha" type="matrix" values="0 0 0 0 0 0 0 0 0 0 0 0 0 0 0 0 0 0 127 0"/>
<feOffset/>
<feGaussianBlur stdDeviation="5"/>
<feColorMatrix type="matrix" values="0 0 0 0 0 0 0 0 0 0 0 0 0 0 0 0 0 0 0.6 0"/>
<feBlend mode="normal" in2="BackgroundImageFix" result="effect1_dropShadow"/>
<feBlend mode="normal" in="SourceGraphic" in2="effect1_dropShadow" result="shape"/>
</filter>
<filter id="filter6_d" x="54.6104" y="0.569336" width="42.3066" height="65.8262" filterUnits="userSpaceOnUse" color-interpolation-filters="sRGB">
<feFlood flood-opacity="0" result="BackgroundImageFix"/>
<feColorMatrix in="SourceAlpha" type="matrix" values="0 0 0 0 0 0 0 0 0 0 0 0 0 0 0 0 0 0 127 0"/>
<feOffset/>
<feGaussianBlur stdDeviation="5"/>
<feColorMatrix type="matrix" values="0 0 0 0 0 0 0 0 0 0 0 0 0 0 0 0 0 0 0.6 0"/>
<feBlend mode="normal" in2="BackgroundImageFix" result="effect1_dropShadow"/>
<feBlend mode="normal" in="SourceGraphic" in2="effect1_dropShadow" result="shape"/>
</filter>
<filter id="filter7_d" x="43.7646" y="0.964844" width="41.3047" height="65.0352" filterUnits="userSpaceOnUse" color-interpolation-filters="sRGB">
<feFlood flood-opacity="0" result="BackgroundImageFix"/>
<feColorMatrix in="SourceAlpha" type="matrix" values="0 0 0 0 0 0 0 0 0 0 0 0 0 0 0 0 0 0 127 0"/>
<feOffset/>
<feGaussianBlur stdDeviation="5"/>
<feColorMatrix type="matrix" values="0 0 0 0 0 0 0 0 0 0 0 0 0 0 0 0 0 0 0.6 0"/>
<feBlend mode="normal" in2="BackgroundImageFix" result="effect1_dropShadow"/>
<feBlend mode="normal" in="SourceGraphic" in2="effect1_dropShadow" result="shape"/>
</filter>
<filter id="filter8_d" x="31.1094" y="0.569336" width="41.1992" height="65.8525" filterUnits="userSpaceOnUse" color-interpolation-filters="sRGB">
<feFlood flood-opacity="0" result="BackgroundImageFix"/>
<feColorMatrix in="SourceAlpha" type="matrix" values="0 0 0 0 0 0 0 0 0 0 0 0 0 0 0 0 0 0 127 0"/>
<feOffset/>
<feGaussianBlur stdDeviation="5"/>
<feColorMatrix type="matrix" values="0 0 0 0 0 0 0 0 0 0 0 0 0 0 0 0 0 0 0.6 0"/>
<feBlend mode="normal" in2="BackgroundImageFix" result="effect1_dropShadow"/>
<feBlend mode="normal" in="SourceGraphic" in2="effect1_dropShadow" result="shape"/>
</filter>
<filter id="filter9_d" x="15.6104" y="0.569336" width="42.3066" height="65.8262" filterUnits="userSpaceOnUse" color-interpolation-filters="sRGB">
<feFlood flood-opacity="0" result="BackgroundImageFix"/>
<feColorMatrix in="SourceAlpha" type="matrix" values="0 0 0 0 0 0 0 0 0 0 0 0 0 0 0 0 0 0 127 0"/>
<feOffset/>
<feGaussianBlur stdDeviation="5"/>
<feColorMatrix type="matrix" values="0 0 0 0 0 0 0 0 0 0 0 0 0 0 0 0 0 0 0.6 0"/>
<feBlend mode="normal" in2="BackgroundImageFix" result="effect1_dropShadow"/>
<feBlend mode="normal" in="SourceGraphic" in2="effect1_dropShadow" result="shape"/>
</filter>
<filter id="filter10_d" x="0.849609" y="0.964844" width="42.4648" height="65.0352" filterUnits="userSpaceOnUse" color-interpolation-filters="sRGB">
<feFlood flood-opacity="0" result="BackgroundImageFix"/>
<feColorMatrix in="SourceAlpha" type="matrix" values="0 0 0 0 0 0 0 0 0 0 0 0 0 0 0 0 0 0 127 0"/>
<feOffset/>
<feGaussianBlur stdDeviation="5"/>
<feColorMatrix type="matrix" values="0 0 0 0 0 0 0 0 0 0 0 0 0 0 0 0 0 0 0.6 0"/>
<feBlend mode="normal" in2="BackgroundImageFix" result="effect1_dropShadow"/>
<feBlend mode="normal" in="SourceGraphic" in2="effect1_dropShadow" result="shape"/>
</filter>
</defs>
</svg>
