<svg width="113" height="137" viewBox="0 0 113 137" fill="none" xmlns="http://www.w3.org/2000/svg">
<g filter="url(#filter0_d)">
<path d="M81.4199 70.293H89.9268C90.8955 70.293 91.9551 70.3333 93.1055 70.4141C94.276 70.4948 95.4365 70.6966 96.5869 71.0195C97.7575 71.3223 98.8776 71.7865 99.9473 72.4121C101.037 73.0378 101.996 73.8955 102.823 74.9854C103.671 76.0752 104.347 77.4476 104.852 79.1025C105.356 80.7373 105.608 82.7253 105.608 85.0664V86.3682C105.608 90.3037 105.043 93.5127 103.913 95.9951C102.783 98.4574 101.118 100.233 98.918 101.323L107.213 122H98.918L92.0459 102.655H89.1094V122H81.4199V70.293ZM90.29 96.9941C91.6624 96.9941 92.8229 96.8428 93.7715 96.54C94.7201 96.2373 95.487 95.7327 96.0723 95.0264C96.6576 94.2998 97.0814 93.3512 97.3438 92.1807C97.6061 90.9899 97.7373 89.5267 97.7373 87.791V83.7041C97.7373 82.3721 97.6162 81.2217 97.374 80.2529C97.1318 79.2842 96.7181 78.487 96.1328 77.8613C95.5677 77.2357 94.8109 76.7715 93.8623 76.4688C92.9137 76.166 91.723 76.0146 90.29 76.0146H89.1094V96.9941H90.29Z" fill="white"/>
</g>
<g filter="url(#filter1_d)">
<path d="M70.1113 70.293H79.1328L88.6992 122H80.7676L79.3447 112.736H69.8994L68.5371 122H60.5752L70.1113 70.293ZM78.4365 106.833L74.8037 81.0703H74.4707L70.8076 106.833H78.4365Z" fill="white"/>
</g>
<g filter="url(#filter2_d)">
<path d="M46.4199 70.293H54.5635C55.7946 70.293 57.0661 70.3333 58.3779 70.4141C59.71 70.4746 61.0016 70.6865 62.2529 71.0498C63.5244 71.4131 64.7152 71.9782 65.8252 72.7451C66.9554 73.4919 67.9443 74.5514 68.792 75.9238C69.6396 77.276 70.3057 78.9915 70.79 81.0703C71.2946 83.1289 71.5469 85.6517 71.5469 88.6387V103.654C71.5469 106.641 71.2946 109.174 70.79 111.253C70.3057 113.332 69.6396 115.047 68.792 116.399C67.9443 117.752 66.9554 118.811 65.8252 119.578C64.7152 120.325 63.5244 120.88 62.2529 121.243C61.0016 121.606 59.71 121.828 58.3779 121.909C57.0661 121.97 55.7946 122 54.5635 122H46.4199V70.293ZM56.2588 116.521C57.6715 116.521 58.832 116.339 59.7402 115.976C60.6686 115.612 61.3952 114.977 61.9199 114.068C62.4648 113.14 62.8382 111.889 63.04 110.314C63.2419 108.72 63.3428 106.712 63.3428 104.29V88.2451C63.3428 85.8232 63.2419 83.8252 63.04 82.251C62.8382 80.6566 62.4648 79.4053 61.9199 78.4971C61.3952 77.5687 60.6686 76.9229 59.7402 76.5596C58.832 76.1963 57.6715 76.0146 56.2588 76.0146H54.2607V116.521H56.2588Z" fill="white"/>
</g>
<g filter="url(#filter3_d)">
<path d="M40.8633 122.454C40.0358 122.454 39.1377 122.383 38.1689 122.242C37.2002 122.121 36.2415 121.849 35.293 121.425C34.3444 121.001 33.4261 120.406 32.5381 119.639C31.6702 118.852 30.8932 117.822 30.207 116.551C29.541 115.279 29.0062 113.715 28.6025 111.858C28.1989 109.981 27.9971 107.751 27.9971 105.168V86.8525C27.9971 84.249 28.1989 82.029 28.6025 80.1924C29.0264 78.3356 29.5814 76.7816 30.2676 75.5303C30.9538 74.2588 31.7308 73.2497 32.5986 72.5029C33.4867 71.7562 34.4049 71.1911 35.3535 70.8076C36.3223 70.404 37.2809 70.1416 38.2295 70.0205C39.1781 69.8994 40.056 69.8389 40.8633 69.8389C41.6302 69.8389 42.4779 69.8994 43.4062 70.0205C44.3548 70.1214 45.2933 70.3636 46.2217 70.7471C47.1702 71.1104 48.0885 71.6654 48.9766 72.4121C49.8646 73.1387 50.6517 74.1377 51.3379 75.4092C52.0241 76.6605 52.569 78.2246 52.9727 80.1016C53.3965 81.9583 53.6084 84.2087 53.6084 86.8525V105.168C53.6084 107.731 53.3965 109.941 52.9727 111.798C52.5488 113.634 51.9938 115.199 51.3076 116.49C50.6214 117.762 49.8242 118.791 48.916 119.578C48.028 120.345 47.1097 120.951 46.1611 121.395C45.2327 121.818 44.3044 122.101 43.376 122.242C42.4476 122.383 41.61 122.454 40.8633 122.454ZM40.8633 116.551C41.6302 116.551 42.2962 116.42 42.8613 116.157C43.4466 115.895 43.9209 115.441 44.2842 114.795C44.6676 114.149 44.9502 113.301 45.1318 112.252C45.3337 111.182 45.4346 109.84 45.4346 108.226V84.7031C45.4346 83.0482 45.3337 81.6657 45.1318 80.5557C44.9502 79.4456 44.6676 78.5576 44.2842 77.8916C43.9209 77.2054 43.4466 76.721 42.8613 76.4385C42.2962 76.1559 41.6302 76.0146 40.8633 76.0146C40.0762 76.0146 39.39 76.1559 38.8047 76.4385C38.2194 76.721 37.735 77.2054 37.3516 77.8916C36.9681 78.5576 36.6755 79.4456 36.4736 80.5557C36.292 81.6657 36.2012 83.0482 36.2012 84.7031V108.226C36.2012 109.84 36.292 111.182 36.4736 112.252C36.6755 113.301 36.9681 114.149 37.3516 114.795C37.735 115.441 38.2194 115.895 38.8047 116.157C39.39 116.42 40.0762 116.551 40.8633 116.551Z" fill="white"/>
</g>
<g filter="url(#filter4_d)">
<path d="M10.4199 70.293H16.7773L29.3105 104.896H29.4922C29.4316 104.088 29.3509 103.19 29.25 102.201C29.1491 101.212 29.0583 100.092 28.9775 98.8408C28.8968 97.5693 28.8262 96.1364 28.7656 94.542C28.7051 92.9476 28.6748 91.1514 28.6748 89.1533V70.293H35.6982V122H29.2803L16.8076 88.3057H16.5654C16.626 89.2139 16.7067 90.2028 16.8076 91.2725C16.9085 92.3219 16.9993 93.5632 17.0801 94.9961C17.1608 96.429 17.2314 98.1042 17.292 100.021C17.3525 101.919 17.3828 104.179 17.3828 106.803V122H10.4199V70.293Z" fill="white"/>
</g>
<g filter="url(#filter5_d)">
<path d="M74.9688 64.1602C74.9688 62.7995 75.043 61.5501 75.1914 60.4121C75.3646 59.2493 75.612 58 75.9336 56.6641H83.3926V59.7441C83.3926 61.4512 83.4915 62.9603 83.6895 64.2715C83.9121 65.5827 84.2585 66.696 84.7285 67.6113C85.2233 68.502 85.8665 69.1823 86.6582 69.6523C87.4746 70.0977 88.4642 70.3203 89.627 70.3203C91.4577 70.3203 92.8555 69.8255 93.8203 68.8359C94.7852 67.8216 95.2676 66.3496 95.2676 64.4199C95.2676 63.4303 95.1934 62.5273 95.0449 61.7109C94.9212 60.8698 94.6862 60.041 94.3398 59.2246C94.0182 58.4082 93.5729 57.5547 93.0039 56.6641C92.4349 55.7487 91.7051 54.7344 90.8145 53.6211L80.7949 41.709C79.0137 39.4329 77.6406 37.1445 76.6758 34.8438C75.7109 32.5182 75.2285 30.0443 75.2285 27.4219C75.2285 25.319 75.5501 23.3893 76.1934 21.6328C76.8613 19.8763 77.8138 18.3672 79.0508 17.1055C80.2878 15.819 81.8092 14.8294 83.6152 14.1367C85.446 13.4193 87.5117 13.0605 89.8125 13.0605C92.6081 13.0605 94.9336 13.4564 96.7891 14.248C98.6693 15.0397 100.166 16.0788 101.279 17.3652C102.393 18.6517 103.172 20.099 103.617 21.707C104.087 23.2904 104.322 24.8861 104.322 26.4941C104.322 27.8548 104.211 29.1165 103.988 30.2793C103.79 31.4173 103.555 32.679 103.283 34.0645H95.8613V31.0586C95.8613 27.694 95.3789 25.1211 94.4141 23.3398C93.4492 21.5339 91.8783 20.6309 89.7012 20.6309C87.8952 20.6309 86.5469 21.138 85.6562 22.1523C84.7656 23.1419 84.3203 24.4779 84.3203 26.1602C84.3203 27.0508 84.3822 27.8548 84.5059 28.5723C84.6543 29.2897 84.8522 29.9577 85.0996 30.5762C85.3717 31.1699 85.6934 31.7513 86.0645 32.3203C86.4355 32.8893 86.8561 33.4831 87.3262 34.1016L98.4961 47.6094C100.525 50.2565 102.083 52.8047 103.172 55.2539C104.26 57.6784 104.805 60.2513 104.805 62.9727C104.805 65.224 104.446 67.2526 103.729 69.0586C103.036 70.8646 102.034 72.3984 100.723 73.6602C99.4115 74.9219 97.8281 75.8991 95.9727 76.5918C94.1172 77.2598 92.0267 77.5938 89.7012 77.5938C86.8314 77.5938 84.444 77.2103 82.5391 76.4434C80.6589 75.6764 79.1497 74.6621 78.0117 73.4004C76.8984 72.1387 76.1068 70.7038 75.6367 69.0957C75.1914 67.4876 74.9688 65.8424 74.9688 64.1602Z" fill="white"/>
</g>
<g filter="url(#filter6_d)">
<path d="M63.3945 13.6172H74.4531L86.1797 77H76.457L74.7129 65.6445H63.1348L61.4648 77H51.7051L63.3945 13.6172ZM73.5996 58.4082L69.1465 26.8281H68.7383L64.248 58.4082H73.5996Z" fill="white"/>
</g>
<g filter="url(#filter7_d)">
<path d="M34.418 13.6172H44.8457C46.0332 13.6172 47.332 13.6667 48.7422 13.7656C50.1771 13.8646 51.5996 14.112 53.0098 14.5078C54.4447 14.8789 55.8177 15.4479 57.1289 16.2148C58.4648 16.9818 59.64 18.0332 60.6543 19.3691C61.6934 20.7051 62.5221 22.3874 63.1406 24.416C63.7591 26.4199 64.0684 28.8568 64.0684 31.7266V33.3223C64.0684 38.1465 63.3757 42.0801 61.9902 45.123C60.6048 48.1413 58.5638 50.3184 55.8672 51.6543L66.0352 77H55.8672L47.4434 53.2871H43.8438V77H34.418V13.6172ZM45.291 46.3477C46.9733 46.3477 48.3958 46.1621 49.5586 45.791C50.7214 45.4199 51.6615 44.8014 52.3789 43.9355C53.0964 43.0449 53.6159 41.8822 53.9375 40.4473C54.2591 38.9876 54.4199 37.194 54.4199 35.0664V30.0566C54.4199 28.4238 54.2715 27.0137 53.9746 25.8262C53.6777 24.6387 53.1706 23.6615 52.4531 22.8945C51.7604 22.1276 50.8327 21.5586 49.6699 21.1875C48.5072 20.8164 47.0475 20.6309 45.291 20.6309H43.8438V46.3477H45.291Z" fill="white"/>
</g>
<g filter="url(#filter8_d)">
<path d="M10.418 13.6172H20.0293V41.3008H20.3262L31.3105 13.6172H40.8848L28.6387 43.3418L42.2578 77H31.9785L20.3262 46.8301H20.0293V77H10.418V13.6172Z" fill="white"/>
</g>
<defs>
<filter id="filter0_d" x="71.4199" y="60.293" width="45.793" height="71.707" filterUnits="userSpaceOnUse" color-interpolation-filters="sRGB">
<feFlood flood-opacity="0" result="BackgroundImageFix"/>
<feColorMatrix in="SourceAlpha" type="matrix" values="0 0 0 0 0 0 0 0 0 0 0 0 0 0 0 0 0 0 127 0"/>
<feOffset/>
<feGaussianBlur stdDeviation="5"/>
<feColorMatrix type="matrix" values="0 0 0 0 0 0 0 0 0 0 0 0 0 0 0 0 0 0 0.6 0"/>
<feBlend mode="normal" in2="BackgroundImageFix" result="effect1_dropShadow"/>
<feBlend mode="normal" in="SourceGraphic" in2="effect1_dropShadow" result="shape"/>
</filter>
<filter id="filter1_d" x="50.5752" y="60.293" width="48.124" height="71.707" filterUnits="userSpaceOnUse" color-interpolation-filters="sRGB">
<feFlood flood-opacity="0" result="BackgroundImageFix"/>
<feColorMatrix in="SourceAlpha" type="matrix" values="0 0 0 0 0 0 0 0 0 0 0 0 0 0 0 0 0 0 127 0"/>
<feOffset/>
<feGaussianBlur stdDeviation="5"/>
<feColorMatrix type="matrix" values="0 0 0 0 0 0 0 0 0 0 0 0 0 0 0 0 0 0 0.6 0"/>
<feBlend mode="normal" in2="BackgroundImageFix" result="effect1_dropShadow"/>
<feBlend mode="normal" in="SourceGraphic" in2="effect1_dropShadow" result="shape"/>
</filter>
<filter id="filter2_d" x="36.4199" y="60.293" width="45.127" height="71.707" filterUnits="userSpaceOnUse" color-interpolation-filters="sRGB">
<feFlood flood-opacity="0" result="BackgroundImageFix"/>
<feColorMatrix in="SourceAlpha" type="matrix" values="0 0 0 0 0 0 0 0 0 0 0 0 0 0 0 0 0 0 127 0"/>
<feOffset/>
<feGaussianBlur stdDeviation="5"/>
<feColorMatrix type="matrix" values="0 0 0 0 0 0 0 0 0 0 0 0 0 0 0 0 0 0 0.6 0"/>
<feBlend mode="normal" in2="BackgroundImageFix" result="effect1_dropShadow"/>
<feBlend mode="normal" in="SourceGraphic" in2="effect1_dropShadow" result="shape"/>
</filter>
<filter id="filter3_d" x="17.9971" y="59.8389" width="45.6113" height="72.6152" filterUnits="userSpaceOnUse" color-interpolation-filters="sRGB">
<feFlood flood-opacity="0" result="BackgroundImageFix"/>
<feColorMatrix in="SourceAlpha" type="matrix" values="0 0 0 0 0 0 0 0 0 0 0 0 0 0 0 0 0 0 127 0"/>
<feOffset/>
<feGaussianBlur stdDeviation="5"/>
<feColorMatrix type="matrix" values="0 0 0 0 0 0 0 0 0 0 0 0 0 0 0 0 0 0 0.6 0"/>
<feBlend mode="normal" in2="BackgroundImageFix" result="effect1_dropShadow"/>
<feBlend mode="normal" in="SourceGraphic" in2="effect1_dropShadow" result="shape"/>
</filter>
<filter id="filter4_d" x="0.419922" y="60.293" width="45.2783" height="71.707" filterUnits="userSpaceOnUse" color-interpolation-filters="sRGB">
<feFlood flood-opacity="0" result="BackgroundImageFix"/>
<feColorMatrix in="SourceAlpha" type="matrix" values="0 0 0 0 0 0 0 0 0 0 0 0 0 0 0 0 0 0 127 0"/>
<feOffset/>
<feGaussianBlur stdDeviation="5"/>
<feColorMatrix type="matrix" values="0 0 0 0 0 0 0 0 0 0 0 0 0 0 0 0 0 0 0.6 0"/>
<feBlend mode="normal" in2="BackgroundImageFix" result="effect1_dropShadow"/>
<feBlend mode="normal" in="SourceGraphic" in2="effect1_dropShadow" result="shape"/>
</filter>
<filter id="filter5_d" x="64.9688" y="3.06055" width="49.8359" height="84.5332" filterUnits="userSpaceOnUse" color-interpolation-filters="sRGB">
<feFlood flood-opacity="0" result="BackgroundImageFix"/>
<feColorMatrix in="SourceAlpha" type="matrix" values="0 0 0 0 0 0 0 0 0 0 0 0 0 0 0 0 0 0 127 0"/>
<feOffset/>
<feGaussianBlur stdDeviation="5"/>
<feColorMatrix type="matrix" values="0 0 0 0 0 0 0 0 0 0 0 0 0 0 0 0 0 0 0.6 0"/>
<feBlend mode="normal" in2="BackgroundImageFix" result="effect1_dropShadow"/>
<feBlend mode="normal" in="SourceGraphic" in2="effect1_dropShadow" result="shape"/>
</filter>
<filter id="filter6_d" x="41.7051" y="3.61719" width="54.4746" height="83.3828" filterUnits="userSpaceOnUse" color-interpolation-filters="sRGB">
<feFlood flood-opacity="0" result="BackgroundImageFix"/>
<feColorMatrix in="SourceAlpha" type="matrix" values="0 0 0 0 0 0 0 0 0 0 0 0 0 0 0 0 0 0 127 0"/>
<feOffset/>
<feGaussianBlur stdDeviation="5"/>
<feColorMatrix type="matrix" values="0 0 0 0 0 0 0 0 0 0 0 0 0 0 0 0 0 0 0.6 0"/>
<feBlend mode="normal" in2="BackgroundImageFix" result="effect1_dropShadow"/>
<feBlend mode="normal" in="SourceGraphic" in2="effect1_dropShadow" result="shape"/>
</filter>
<filter id="filter7_d" x="24.418" y="3.61719" width="51.6172" height="83.3828" filterUnits="userSpaceOnUse" color-interpolation-filters="sRGB">
<feFlood flood-opacity="0" result="BackgroundImageFix"/>
<feColorMatrix in="SourceAlpha" type="matrix" values="0 0 0 0 0 0 0 0 0 0 0 0 0 0 0 0 0 0 127 0"/>
<feOffset/>
<feGaussianBlur stdDeviation="5"/>
<feColorMatrix type="matrix" values="0 0 0 0 0 0 0 0 0 0 0 0 0 0 0 0 0 0 0.6 0"/>
<feBlend mode="normal" in2="BackgroundImageFix" result="effect1_dropShadow"/>
<feBlend mode="normal" in="SourceGraphic" in2="effect1_dropShadow" result="shape"/>
</filter>
<filter id="filter8_d" x="0.417969" y="3.61719" width="51.8398" height="83.3828" filterUnits="userSpaceOnUse" color-interpolation-filters="sRGB">
<feFlood flood-opacity="0" result="BackgroundImageFix"/>
<feColorMatrix in="SourceAlpha" type="matrix" values="0 0 0 0 0 0 0 0 0 0 0 0 0 0 0 0 0 0 127 0"/>
<feOffset/>
<feGaussianBlur stdDeviation="5"/>
<feColorMatrix type="matrix" values="0 0 0 0 0 0 0 0 0 0 0 0 0 0 0 0 0 0 0.6 0"/>
<feBlend mode="normal" in2="BackgroundImageFix" result="effect1_dropShadow"/>
<feBlend mode="normal" in="SourceGraphic" in2="effect1_dropShadow" result="shape"/>
</filter>
</defs>
</svg>
