<svg width="97" height="133" viewBox="0 0 97 133" fill="none" xmlns="http://www.w3.org/2000/svg">
<g filter="url(#filter0_d)">
<path d="M46.1201 66.293H53.6279L57.1094 97.5352L57.5029 104.831H58.2598L58.9863 96.627L64.5566 66.293H70.8232L76.1514 96.627L76.7568 104.831H77.5439L77.9072 97.5352L81.0859 66.293H88.624L81.3887 118H73.4268L69.1582 93.1455L67.8262 82.3379H67.2207L65.9189 93.1455L61.4385 118H53.5674L46.1201 66.293Z" fill="white"/>
</g>
<g filter="url(#filter1_d)">
<path d="M40.8633 118.454C40.0358 118.454 39.1377 118.383 38.1689 118.242C37.2002 118.121 36.2415 117.849 35.293 117.425C34.3444 117.001 33.4261 116.406 32.5381 115.639C31.6702 114.852 30.8932 113.822 30.207 112.551C29.541 111.279 29.0062 109.715 28.6025 107.858C28.1989 105.981 27.9971 103.751 27.9971 101.168V82.8525C27.9971 80.249 28.1989 78.029 28.6025 76.1924C29.0264 74.3356 29.5814 72.7816 30.2676 71.5303C30.9538 70.2588 31.7308 69.2497 32.5986 68.5029C33.4867 67.7562 34.4049 67.1911 35.3535 66.8076C36.3223 66.404 37.2809 66.1416 38.2295 66.0205C39.1781 65.8994 40.056 65.8389 40.8633 65.8389C41.6302 65.8389 42.4779 65.8994 43.4062 66.0205C44.3548 66.1214 45.2933 66.3636 46.2217 66.7471C47.1702 67.1104 48.0885 67.6654 48.9766 68.4121C49.8646 69.1387 50.6517 70.1377 51.3379 71.4092C52.0241 72.6605 52.569 74.2246 52.9727 76.1016C53.3965 77.9583 53.6084 80.2087 53.6084 82.8525V101.168C53.6084 103.731 53.3965 105.941 52.9727 107.798C52.5488 109.634 51.9938 111.199 51.3076 112.49C50.6214 113.762 49.8242 114.791 48.916 115.578C48.028 116.345 47.1097 116.951 46.1611 117.395C45.2327 117.818 44.3044 118.101 43.376 118.242C42.4476 118.383 41.61 118.454 40.8633 118.454ZM40.8633 112.551C41.6302 112.551 42.2962 112.42 42.8613 112.157C43.4466 111.895 43.9209 111.441 44.2842 110.795C44.6676 110.149 44.9502 109.301 45.1318 108.252C45.3337 107.182 45.4346 105.84 45.4346 104.226V80.7031C45.4346 79.0482 45.3337 77.6657 45.1318 76.5557C44.9502 75.4456 44.6676 74.5576 44.2842 73.8916C43.9209 73.2054 43.4466 72.721 42.8613 72.4385C42.2962 72.1559 41.6302 72.0146 40.8633 72.0146C40.0762 72.0146 39.39 72.1559 38.8047 72.4385C38.2194 72.721 37.735 73.2054 37.3516 73.8916C36.9681 74.5576 36.6755 75.4456 36.4736 76.5557C36.292 77.6657 36.2012 79.0482 36.2012 80.7031V104.226C36.2012 105.84 36.292 107.182 36.4736 108.252C36.6755 109.301 36.9681 110.149 37.3516 110.795C37.735 111.441 38.2194 111.895 38.8047 112.157C39.39 112.42 40.0762 112.551 40.8633 112.551Z" fill="white"/>
</g>
<g filter="url(#filter2_d)">
<path d="M23.5605 118.454C22.7533 118.454 21.8753 118.383 20.9268 118.242C19.9984 118.121 19.0599 117.849 18.1113 117.425C17.1829 117.001 16.2848 116.406 15.417 115.639C14.5693 114.852 13.8125 113.822 13.1465 112.551C12.5007 111.279 11.9759 109.715 11.5723 107.858C11.1888 105.981 10.9971 103.751 10.9971 101.168V82.8525C10.9971 80.249 11.1989 78.029 11.6025 76.1924C12.0062 74.3356 12.541 72.7816 13.207 71.5303C13.873 70.2588 14.64 69.2497 15.5078 68.5029C16.3757 67.7562 17.2738 67.1911 18.2021 66.8076C19.1305 66.404 20.0488 66.1416 20.957 66.0205C21.8854 65.8994 22.7432 65.8389 23.5303 65.8389C25.5889 65.8389 27.3044 66.1315 28.6768 66.7168C30.0693 67.2819 31.1794 68.069 32.0068 69.0781C32.8545 70.0671 33.4499 71.2275 33.793 72.5596C34.1562 73.8916 34.3379 75.3044 34.3379 76.7979C34.3379 77.9079 34.2773 78.9372 34.1562 79.8857C34.0553 80.8141 33.8939 81.8434 33.6719 82.9736H27.3145V80.3398C27.3145 77.4941 27.0016 75.3649 26.376 73.9521C25.7503 72.5394 24.832 71.833 23.6211 71.833C22.8945 71.833 22.2588 71.9743 21.7139 72.2568C21.1689 72.5394 20.7148 73.0238 20.3516 73.71C19.9883 74.376 19.7057 75.264 19.5039 76.374C19.3223 77.484 19.2314 78.8665 19.2314 80.5215V104.135C19.2314 105.749 19.3021 107.091 19.4434 108.161C19.6048 109.231 19.8571 110.089 20.2002 110.734C20.5433 111.38 20.9873 111.844 21.5322 112.127C22.0973 112.389 22.7734 112.521 23.5605 112.521C24.0651 112.521 24.5495 112.41 25.0137 112.188C25.4779 111.945 25.8815 111.582 26.2246 111.098C26.5879 110.593 26.8704 109.967 27.0723 109.221C27.2943 108.454 27.4053 107.556 27.4053 106.526V101.471H34.5801V106.254C34.5801 110.411 33.6315 113.479 31.7344 115.457C29.8372 117.435 27.1126 118.434 23.5605 118.454Z" fill="white"/>
</g>
<g filter="url(#filter3_d)">
<path d="M59.4219 52.5254C59.4219 51.4154 59.4824 50.3962 59.6035 49.4678C59.7448 48.5192 59.9466 47.5 60.209 46.4102H66.2939V48.9229C66.2939 50.3154 66.3747 51.5465 66.5361 52.6162C66.7178 53.6859 67.0003 54.5941 67.3838 55.3408C67.7874 56.0674 68.3122 56.6224 68.958 57.0059C69.624 57.3691 70.4313 57.5508 71.3799 57.5508C72.8734 57.5508 74.0137 57.1471 74.8008 56.3398C75.5879 55.5124 75.9814 54.3115 75.9814 52.7373C75.9814 51.93 75.9209 51.1934 75.7998 50.5273C75.6989 49.8411 75.5072 49.165 75.2246 48.499C74.9622 47.833 74.599 47.1367 74.1348 46.4102C73.6706 45.6634 73.0752 44.8359 72.3486 43.9277L64.1748 34.21C62.7217 32.3532 61.6016 30.4863 60.8145 28.6094C60.0273 26.7122 59.6338 24.694 59.6338 22.5547C59.6338 20.8392 59.8962 19.265 60.4209 17.832C60.9658 16.3991 61.7428 15.168 62.752 14.1387C63.7611 13.0892 65.0023 12.2819 66.4756 11.7168C67.9691 11.1315 69.6543 10.8389 71.5312 10.8389C73.8118 10.8389 75.709 11.1618 77.2227 11.8076C78.7565 12.4535 79.9775 13.3011 80.8857 14.3506C81.7939 15.4001 82.4297 16.5807 82.793 17.8926C83.1764 19.1842 83.3682 20.486 83.3682 21.7979C83.3682 22.9079 83.2773 23.9372 83.0957 24.8857C82.9342 25.8141 82.7425 26.8434 82.5205 27.9736H76.4658V25.5215C76.4658 22.7767 76.0723 20.6777 75.2852 19.2246C74.498 17.7513 73.2165 17.0146 71.4404 17.0146C69.9671 17.0146 68.8672 17.4284 68.1406 18.2559C67.4141 19.0632 67.0508 20.153 67.0508 21.5254C67.0508 22.252 67.1012 22.9079 67.2021 23.4932C67.3232 24.0785 67.4847 24.6234 67.6865 25.1279C67.9085 25.6123 68.1709 26.0866 68.4736 26.5508C68.7764 27.015 69.1195 27.4993 69.5029 28.0039L78.6152 39.0234C80.2702 41.1829 81.5417 43.2617 82.4297 45.2598C83.3177 47.2376 83.7617 49.3366 83.7617 51.5566C83.7617 53.3932 83.4691 55.0482 82.8838 56.5215C82.3187 57.9948 81.5013 59.2461 80.4316 60.2754C79.362 61.3047 78.0703 62.1019 76.5566 62.667C75.043 63.2119 73.3376 63.4844 71.4404 63.4844C69.0993 63.4844 67.1517 63.1715 65.5977 62.5459C64.0638 61.9202 62.8327 61.0928 61.9043 60.0635C60.9961 59.0342 60.3503 57.8636 59.9668 56.5518C59.6035 55.2399 59.4219 53.8978 59.4219 52.5254Z" fill="white"/>
</g>
<g filter="url(#filter4_d)">
<path d="M53.8633 63.4541C53.0358 63.4541 52.1377 63.3835 51.1689 63.2422C50.2002 63.1211 49.2415 62.8486 48.293 62.4248C47.3444 62.001 46.4261 61.4056 45.5381 60.6387C44.6702 59.8516 43.8932 58.8223 43.207 57.5508C42.541 56.2793 42.0062 54.7152 41.6025 52.8584C41.1989 50.9814 40.9971 48.7513 40.9971 46.168V27.8525C40.9971 25.249 41.1989 23.029 41.6025 21.1924C42.0264 19.3356 42.5814 17.7816 43.2676 16.5303C43.9538 15.2588 44.7308 14.2497 45.5986 13.5029C46.4867 12.7562 47.4049 12.1911 48.3535 11.8076C49.3223 11.404 50.2809 11.1416 51.2295 11.0205C52.1781 10.8994 53.056 10.8389 53.8633 10.8389C54.6302 10.8389 55.4779 10.8994 56.4062 11.0205C57.3548 11.1214 58.2933 11.3636 59.2217 11.7471C60.1702 12.1104 61.0885 12.6654 61.9766 13.4121C62.8646 14.1387 63.6517 15.1377 64.3379 16.4092C65.0241 17.6605 65.569 19.2246 65.9727 21.1016C66.3965 22.9583 66.6084 25.2087 66.6084 27.8525V46.168C66.6084 48.7311 66.3965 50.9411 65.9727 52.7979C65.5488 54.6344 64.9938 56.1986 64.3076 57.4902C63.6214 58.7617 62.8242 59.791 61.916 60.5781C61.028 61.3451 60.1097 61.9505 59.1611 62.3945C58.2327 62.8184 57.3044 63.1009 56.376 63.2422C55.4476 63.3835 54.61 63.4541 53.8633 63.4541ZM53.8633 57.5508C54.6302 57.5508 55.2962 57.4196 55.8613 57.1572C56.4466 56.8949 56.9209 56.4408 57.2842 55.7949C57.6676 55.1491 57.9502 54.3014 58.1318 53.252C58.3337 52.1823 58.4346 50.8402 58.4346 49.2256V25.7031C58.4346 24.0482 58.3337 22.6657 58.1318 21.5557C57.9502 20.4456 57.6676 19.5576 57.2842 18.8916C56.9209 18.2054 56.4466 17.721 55.8613 17.4385C55.2962 17.1559 54.6302 17.0146 53.8633 17.0146C53.0762 17.0146 52.39 17.1559 51.8047 17.4385C51.2194 17.721 50.735 18.2054 50.3516 18.8916C49.9681 19.5576 49.6755 20.4456 49.4736 21.5557C49.292 22.6657 49.2012 24.0482 49.2012 25.7031V49.2256C49.2012 50.8402 49.292 52.1823 49.4736 53.252C49.6755 54.3014 49.9681 55.1491 50.3516 55.7949C50.735 56.4408 51.2194 56.8949 51.8047 57.1572C52.39 57.4196 53.0762 57.5508 53.8633 57.5508Z" fill="white"/>
</g>
<g filter="url(#filter5_d)">
<path d="M12.4199 11.293H22.6523L27.6172 31.3037C28.1419 33.5238 28.5557 35.6429 28.8584 37.6611C29.1611 39.6592 29.4538 41.5462 29.7363 43.3223H29.9785C30.2611 41.5462 30.5537 39.6592 30.8564 37.6611C31.1592 35.6429 31.5729 33.5238 32.0977 31.3037L37.2139 11.293H47.2344V63H39.9082V45.8955C39.9082 43.2718 39.9284 40.749 39.9688 38.3271C40.0293 35.9053 40.0999 33.6852 40.1807 31.667C40.2614 29.6286 40.3522 27.8324 40.4531 26.2783C40.554 24.7243 40.6449 23.4932 40.7256 22.585H40.1504L32.3398 56.3398H27.375L19.5039 22.585H18.9287C19.0094 23.4932 19.1003 24.7243 19.2012 26.2783C19.3021 27.8324 19.3929 29.6286 19.4736 31.667C19.5544 33.6852 19.6149 35.9053 19.6553 38.3271C19.7158 40.749 19.7461 43.2718 19.7461 45.8955V63H12.4199V11.293Z" fill="white"/>
</g>
<defs>
<filter id="filter0_d" x="36.1201" y="56.293" width="62.5039" height="71.707" filterUnits="userSpaceOnUse" color-interpolation-filters="sRGB">
<feFlood flood-opacity="0" result="BackgroundImageFix"/>
<feColorMatrix in="SourceAlpha" type="matrix" values="0 0 0 0 0 0 0 0 0 0 0 0 0 0 0 0 0 0 127 0"/>
<feOffset/>
<feGaussianBlur stdDeviation="5"/>
<feColorMatrix type="matrix" values="0 0 0 0 0 0 0 0 0 0 0 0 0 0 0 0 0 0 0.6 0"/>
<feBlend mode="normal" in2="BackgroundImageFix" result="effect1_dropShadow"/>
<feBlend mode="normal" in="SourceGraphic" in2="effect1_dropShadow" result="shape"/>
</filter>
<filter id="filter1_d" x="17.9971" y="55.8389" width="45.6113" height="72.6152" filterUnits="userSpaceOnUse" color-interpolation-filters="sRGB">
<feFlood flood-opacity="0" result="BackgroundImageFix"/>
<feColorMatrix in="SourceAlpha" type="matrix" values="0 0 0 0 0 0 0 0 0 0 0 0 0 0 0 0 0 0 127 0"/>
<feOffset/>
<feGaussianBlur stdDeviation="5"/>
<feColorMatrix type="matrix" values="0 0 0 0 0 0 0 0 0 0 0 0 0 0 0 0 0 0 0.6 0"/>
<feBlend mode="normal" in2="BackgroundImageFix" result="effect1_dropShadow"/>
<feBlend mode="normal" in="SourceGraphic" in2="effect1_dropShadow" result="shape"/>
</filter>
<filter id="filter2_d" x="0.99707" y="55.8389" width="43.583" height="72.6152" filterUnits="userSpaceOnUse" color-interpolation-filters="sRGB">
<feFlood flood-opacity="0" result="BackgroundImageFix"/>
<feColorMatrix in="SourceAlpha" type="matrix" values="0 0 0 0 0 0 0 0 0 0 0 0 0 0 0 0 0 0 127 0"/>
<feOffset/>
<feGaussianBlur stdDeviation="5"/>
<feColorMatrix type="matrix" values="0 0 0 0 0 0 0 0 0 0 0 0 0 0 0 0 0 0 0.6 0"/>
<feBlend mode="normal" in2="BackgroundImageFix" result="effect1_dropShadow"/>
<feBlend mode="normal" in="SourceGraphic" in2="effect1_dropShadow" result="shape"/>
</filter>
<filter id="filter3_d" x="49.4219" y="0.838867" width="44.3398" height="72.6455" filterUnits="userSpaceOnUse" color-interpolation-filters="sRGB">
<feFlood flood-opacity="0" result="BackgroundImageFix"/>
<feColorMatrix in="SourceAlpha" type="matrix" values="0 0 0 0 0 0 0 0 0 0 0 0 0 0 0 0 0 0 127 0"/>
<feOffset/>
<feGaussianBlur stdDeviation="5"/>
<feColorMatrix type="matrix" values="0 0 0 0 0 0 0 0 0 0 0 0 0 0 0 0 0 0 0.6 0"/>
<feBlend mode="normal" in2="BackgroundImageFix" result="effect1_dropShadow"/>
<feBlend mode="normal" in="SourceGraphic" in2="effect1_dropShadow" result="shape"/>
</filter>
<filter id="filter4_d" x="30.9971" y="0.838867" width="45.6113" height="72.6152" filterUnits="userSpaceOnUse" color-interpolation-filters="sRGB">
<feFlood flood-opacity="0" result="BackgroundImageFix"/>
<feColorMatrix in="SourceAlpha" type="matrix" values="0 0 0 0 0 0 0 0 0 0 0 0 0 0 0 0 0 0 127 0"/>
<feOffset/>
<feGaussianBlur stdDeviation="5"/>
<feColorMatrix type="matrix" values="0 0 0 0 0 0 0 0 0 0 0 0 0 0 0 0 0 0 0.6 0"/>
<feBlend mode="normal" in2="BackgroundImageFix" result="effect1_dropShadow"/>
<feBlend mode="normal" in="SourceGraphic" in2="effect1_dropShadow" result="shape"/>
</filter>
<filter id="filter5_d" x="2.41992" y="1.29297" width="54.8145" height="71.707" filterUnits="userSpaceOnUse" color-interpolation-filters="sRGB">
<feFlood flood-opacity="0" result="BackgroundImageFix"/>
<feColorMatrix in="SourceAlpha" type="matrix" values="0 0 0 0 0 0 0 0 0 0 0 0 0 0 0 0 0 0 127 0"/>
<feOffset/>
<feGaussianBlur stdDeviation="5"/>
<feColorMatrix type="matrix" values="0 0 0 0 0 0 0 0 0 0 0 0 0 0 0 0 0 0 0.6 0"/>
<feBlend mode="normal" in2="BackgroundImageFix" result="effect1_dropShadow"/>
<feBlend mode="normal" in="SourceGraphic" in2="effect1_dropShadow" result="shape"/>
</filter>
</defs>
</svg>
